<svg width="50" height="47" viewBox="0 0 50 47" fill="none" xmlns="http://www.w3.org/2000/svg">
<path d="M1.56187 0C0.702839 0 0 0.705 0 1.56667C0 2.42833 0.702839 3.13333 1.56187 3.13333H7.65314L8.98072 8.06833C8.98072 8.14667 8.98072 8.225 8.98072 8.225L13.9787 26.9467C13.9787 26.9467 13.9787 26.9467 13.9787 27.025L15.6187 33.2917C15.7748 33.9967 16.3996 34.4667 17.1024 34.4667H42.0923C42.9513 34.4667 43.6541 33.7617 43.6541 32.9C43.6541 32.0383 42.9513 31.3333 42.0923 31.3333H18.3519L17.4929 28.0433L45.3722 26.6333C46.075 26.6333 46.6998 26.085 46.856 25.38L49.9797 8.14667C50.0578 7.67667 49.9016 7.20667 49.6673 6.89333C49.3549 6.50167 48.8864 6.26667 48.4178 6.26667H11.714L10.3864 1.175C10.1521 0.47 9.52738 0 8.82454 0H1.56187ZM20.3042 12.5333C21.1633 12.5333 21.8661 13.2383 21.8661 14.1V20.3667C21.8661 21.2283 21.1633 21.9333 20.3042 21.9333C19.4452 21.9333 18.7424 21.2283 18.7424 20.3667V14.1C18.7424 13.2383 19.4452 12.5333 20.3042 12.5333ZM29.6754 12.5333C30.5345 12.5333 31.2373 13.2383 31.2373 14.1V20.3667C31.2373 21.2283 30.5345 21.9333 29.6754 21.9333C28.8164 21.9333 28.1136 21.2283 28.1136 20.3667V14.1C28.1136 13.2383 28.8164 12.5333 29.6754 12.5333ZM39.0466 12.5333C39.9057 12.5333 40.6085 13.2383 40.6085 14.1V20.3667C40.6085 21.2283 39.9057 21.9333 39.0466 21.9333C38.1876 21.9333 37.4848 21.2283 37.4848 20.3667V14.1C37.4848 13.2383 38.1876 12.5333 39.0466 12.5333ZM20.3042 37.6C17.7272 37.6 15.6187 39.715 15.6187 42.3C15.6187 44.885 17.7272 47 20.3042 47C22.8813 47 24.9898 44.885 24.9898 42.3C24.9898 39.715 22.8813 37.6 20.3042 37.6ZM39.0466 37.6C36.4695 37.6 34.361 39.715 34.361 42.3C34.361 44.885 36.4695 47 39.0466 47C41.6237 47 43.7322 44.885 43.7322 42.3C43.7322 39.715 41.6237 37.6 39.0466 37.6Z" fill="black"/>
</svg>
